<?xml version="1.0" encoding="utf-8"?>
<!-- Svg Vector Icons : http://www.onlinewebfonts.com/icon -->
<!DOCTYPE svg PUBLIC "-//W3C//DTD SVG 1.1//EN" "http://www.w3.org/Graphics/SVG/1.1/DTD/svg11.dtd">
<svg version="1.1" xmlns="http://www.w3.org/2000/svg" xmlns:xlink="http://www.w3.org/1999/xlink" x="0px" y="0px" viewBox="0 0 1000 1000" enable-background="new 0 0 1000 1000" xml:space="preserve">
<metadata> Svg Vector Icons : http://www.onlinewebfonts.com/icon </metadata>
<g><g transform="translate(0.000000,512.000000) scale(0.100000,-0.100000)"><path d="M3703.3,5012.4c-806.9-67.1-1366.6-172.5-1928.2-364.2C906.9,4353.1,347.2,3919.9,144.1,3385.1l-44.1-115V222.6c0-2921,1.9-3051.3,36.4-3152.9c164.8-492.6,649.7-904.7,1429.8-1213.3c1002.4-398.7,2447.6-544.3,3745.2-377.6c396.7,49.8,542.4,84.3,596.1,134.2c82.4,78.6,76.7,210.8-15.3,289.4c-49.8,44.1-128.4,42.2-521.3-19.2c-826.1-124.6-1889.8-99.7-2712.1,67.1c-509.8,101.6-868.2,220.4-1255.4,410.2c-555.8,274.1-860.6,588.4-910.4,941.1c-9.6,67.1-19.2,316.3-19.2,552v429.3l55.6-46c308.6-254.9,469.6-358.4,797.3-509.9c690-320.1,1539.1-502.2,2520.4-540.5c437-15.3,613.3-13.4,1063.8,19.2c316.3,23,387.2,42.2,438.9,116.9c69,97.7,1.9,266.4-113.1,289.4c-26.8,3.8-197.4-3.8-379.5-19.2c-400.6-34.5-1159.6-23-1556.3,23C1918.9-2225,845.6-1743.9,558.1-1155.4c-30.7,61.3-57.5,159.1-67.1,241.5c-17.3,159.1-23,1146.2-5.7,1146.2c5.7,0,55.6-40.3,109.2-88.2c538.6-484.9,1546.8-835.7,2783-969.8c304.7-32.6,1362.8-32.6,1667.5,0c989,107.3,1822.8,346.9,2395.8,690c145.7,88.2,369.9,253,429.3,318.2c26.8,26.8,53.7,49.8,63.3,49.8c7.7,0,15.3-128.4,15.3-287.5v-287.5l53.7-59.4c70.9-80.5,195.5-84.3,270.3-7.7l49.8,47.9l5.7,1767.2c5.7,1972.3,11.5,1870.7-130.3,2152.4C7847.2,4259.1,6658.8,4805.4,5112.1,4976C4847.6,5006.6,3916.1,5029.6,3703.3,5012.4z M4882.1,4600.3c1470.1-109.2,2687.2-622.9,2984.3-1261.2c61.3-132.3,67.1-153.3,59.4-297.1c-7.7-212.8-84.3-368-272.2-557.8c-460-463.8-1347.4-795.4-2518.5-943c-373.8-47.9-1473.9-47.9-1847.7,0c-785.8,97.7-1364.7,256.8-1884.1,511.8c-437,216.6-726.4,463.8-851,728.3c-42.2,88.2-49.8,132.2-49.8,277.9c0,157.2,5.7,185.9,61.3,297.1c208.9,425.5,849.1,812.7,1709.7,1036.9C3067,4598.4,3958.3,4669.3,4882.1,4600.3z M853.2,1913.1C2334.8,922.2,5451.3,820.6,7222.3,1708c208.9,105.4,437,254.9,598,391l128.4,109.3v-513.7c-1.9-617.2-15.3-755.2-88.1-902.7c-69-134.2-331.6-404.4-506-519.4c-279.8-182.1-716.8-369.9-1150-490.7c-1063.8-299-2499.3-331.6-3641.7-84.3c-580.7,126.5-1136.6,341.2-1495,575C870.5,402.8,638.6,644.3,567.7,795.7c-80.5,170.6-92,293.3-93.9,898.9v515.6l111.2-95.8C644.3,2062.6,765.1,1972.5,853.2,1913.1z"/><path d="M9482.1-739.6c-153.3-47.9-172.5-99.6-172.5-458.1v-281.7l-99.7,93.9C8978-1167,8663.7-988.7,8380-917.8c-611.4,157.2-1301.4-28.8-1780.6-479.2c-808.8-760.9-829.9-2029.8-46-2815.6c249.2-249.2,555.8-423.6,916.2-523.2c141.8-38.3,205.1-44.1,479.2-42.2c337.3,1.9,469.6,24.9,728.3,128.4c686.2,277.9,1173,944.9,1219,1671.3c7.7,103.5,3.8,193.6-9.6,224.2c-42.1,107.3-191.7,151.4-293.2,84.3c-57.5-38.3-86.3-130.3-99.7-318.2c-34.5-506-375.7-994.8-864.4-1242c-235.7-116.9-373.8-147.6-680.4-147.6c-231.9,0-302.8,7.7-429.3,44.1c-429.3,124.6-782,417.8-977.5,816.5c-130.3,262.6-153.3,373.8-153.3,701.5c0,251.1,5.8,293.2,53.7,440.8c210.8,649.8,757.1,1073.3,1420.2,1105.9c433.2,21.1,764.8-113.1,1094.4-435.1l126.5-124.6l-369.9-9.6c-318.2-7.6-379.5-15.3-423.6-44.1c-105.4-72.8-109.3-233.8-7.7-308.6c49.8-38.3,78.6-40.3,741.7-46l688.1-5.7v647.8c0,391-7.7,676.6-21.1,720.7C9666.1-781.7,9560.7-712.7,9482.1-739.6z"/></g></g>
</svg>